<?xml version="1.0" standalone="no"?>
<!DOCTYPE svg PUBLIC "-//W3C//DTD SVG 20010904//EN"
 "http://www.w3.org/TR/2001/REC-SVG-20010904/DTD/svg10.dtd">
<svg version="1.0" xmlns="http://www.w3.org/2000/svg"
 width="340.000000pt" height="270.000000pt" viewBox="0 0 340.000000 270.000000"
 preserveAspectRatio="xMidYMid meet">

<g transform="translate(0.000000,270.000000) scale(0.100000,-0.100000)"
fill="#000000" stroke="none">
<path d="M1650 2609 c-32 -13 -78 -56 -96 -91 -22 -42 -17 -125 10 -185 28
-60 118 -153 204 -212 l60 -40 43 31 c187 134 268 259 239 367 -30 111 -143
168 -249 125 -36 -14 -42 -14 -70 0 -33 18 -103 20 -141 5z m143 -78 l33 -30
25 25 c31 30 88 41 129 24 73 -30 95 -121 48 -201 -26 -44 -117 -136 -174
-176 l-30 -22 -35 26 c-61 47 -131 117 -160 162 -48 75 -37 159 27 202 44 29
97 25 137 -10z"/>
<path d="M1508 2130 c-54 -29 -81 -73 -86 -140 -5 -69 -5 -68 139 -290 60 -93
109 -172 109 -175 0 -3 -12 -5 -27 -5 -39 0 -110 -37 -134 -71 -11 -16 -23
-44 -26 -63 l-5 -35 -48 6 c-26 3 -63 0 -83 -6 -46 -15 -104 -80 -112 -124 -7
-34 -8 -35 -45 -30 -89 12 -163 -29 -195 -109 -31 -77 -21 -99 176 -404 98
-153 196 -294 217 -313 65 -59 135 -85 227 -86 66 0 90 5 135 26 52 24 479
295 547 346 75 57 131 199 118 297 -10 75 -27 108 -198 374 -87 134 -157 247
-157 252 0 5 38 86 85 181 91 183 97 207 66 275 -33 72 -107 111 -187 99 -60
-9 -107 -51 -150 -138 -25 -49 -39 -66 -46 -59 -6 6 -34 46 -62 89 -60 90
-106 123 -176 122 -25 0 -62 -9 -82 -19z m137 -52 c16 -7 66 -74 142 -192 492
-763 551 -858 563 -906 23 -94 -7 -195 -77 -262 -35 -33 -466 -314 -540 -351
-93 -48 -220 -27 -302 51 -51 49 -375 540 -387 587 -8 34 13 91 43 115 29 23
88 27 128 8 15 -7 56 -60 107 -141 46 -71 89 -132 96 -135 8 -2 21 2 29 11 17
17 23 5 -102 202 -52 82 -56 94 -52 135 7 62 49 100 113 100 57 0 80 -22 178
-175 51 -79 77 -110 91 -110 38 0 26 36 -50 154 -42 66 -79 132 -84 148 -18
65 28 131 97 140 62 8 88 -14 181 -158 68 -107 87 -130 105 -127 11 2 22 10
24 18 1 9 -36 76 -84 150 -48 74 -152 236 -232 358 -79 123 -148 237 -153 254
-11 39 13 98 49 121 32 19 81 22 117 5z m466 -15 c31 -18 59 -67 59 -103 0
-12 -34 -89 -76 -171 l-76 -150 -60 93 c-33 51 -66 102 -73 113 -11 17 -7 31
31 108 61 120 120 154 195 110z"/>
<path d="M0 105 l0 -105 1700 0 1700 0 0 105 0 105 -1700 0 -1700 0 0 -105z
m89 40 c3 -17 1 -18 -13 -6 -13 11 -16 11 -16 -2 0 -8 7 -20 16 -27 22 -19 14
-65 -11 -65 -12 0 -21 8 -24 20 -3 17 -1 18 13 6 13 -11 16 -11 16 2 0 8 -7
20 -15 27 -16 13 -20 51 -8 64 13 12 38 1 42 -19z m35 3 c3 -13 7 -32 9 -43 3
-13 7 -4 12 23 4 23 12 42 17 42 5 0 7 -12 4 -27 -2 -16 -7 -45 -11 -66 -9
-53 -31 -48 -39 11 -4 26 -9 55 -12 65 -3 9 -1 17 5 17 6 0 13 -10 15 -22z
m106 7 c10 -12 10 -19 2 -27 -9 -9 -12 -8 -12 5 0 9 -4 17 -10 17 -5 0 -10
-20 -10 -45 0 -26 5 -45 11 -45 7 0 9 10 5 25 -5 18 -2 25 9 25 20 0 20 -43 0
-60 -29 -24 -45 -4 -45 53 0 30 3 57 7 60 11 12 30 8 43 -8z m108 -23 c2 -22
-2 -34 -12 -38 -9 -3 -16 -14 -16 -24 0 -11 -4 -22 -10 -25 -6 -4 -10 18 -10
60 0 63 1 66 23 63 17 -2 23 -11 25 -36z m51 6 l9 -33 1 33 c1 17 6 32 11 32
7 0 10 -24 8 -62 -3 -68 -17 -79 -32 -26 l-10 33 -7 -40 c-5 -35 -6 -31 -8 28
-1 72 12 89 28 35z m99 2 c2 -23 1 -24 -11 -7 -22 26 -27 21 -27 -28 0 -26 5
-45 11 -45 7 0 9 10 7 25 -4 17 -1 25 8 25 20 0 18 -59 -1 -66 -8 -4 -22 -1
-30 6 -18 15 -20 91 -3 108 19 19 43 10 46 -18z m107 20 c3 -5 -3 -10 -14 -10
-26 0 -28 -25 -3 -39 16 -10 16 -10 0 -11 -11 0 -18 -8 -18 -20 0 -14 7 -20
21 -20 11 0 17 -4 14 -10 -3 -5 -17 -10 -31 -10 -23 0 -24 3 -24 65 0 62 1 65
24 65 14 0 28 -4 31 -10z m63 -2 c20 -20 15 -59 -8 -65 -13 -3 -20 -14 -20
-29 0 -13 -4 -24 -10 -24 -6 0 -10 28 -10 65 0 56 3 65 18 65 10 0 23 -5 30
-12z m71 -13 c3 -17 1 -18 -13 -6 -13 11 -16 11 -16 -2 0 -8 7 -20 16 -27 20
-17 14 -64 -9 -68 -9 -2 -20 4 -23 13 -8 20 4 34 15 16 5 -8 11 -9 15 -3 3 5
-3 17 -14 27 -20 18 -27 55 -13 69 13 12 38 1 42 -19z m109 13 c7 -7 12 -30
12 -53 0 -44 -13 -65 -42 -65 -15 0 -18 9 -18 65 0 56 3 65 18 65 10 0 23 -5
30 -12z m46 -10 l7 -23 10 24 c13 33 24 19 12 -16 -6 -15 -7 -37 -2 -48 15
-38 9 -51 -11 -25 -15 20 -20 21 -20 8 0 -9 -4 -19 -8 -22 -5 -3 -8 24 -8 60
1 66 9 81 20 42z m106 12 c0 -5 -7 -10 -15 -10 -18 0 -20 -36 -2 -44 10 -5 10
-7 0 -12 -7 -3 -13 -17 -13 -30 0 -13 -4 -24 -10 -24 -6 0 -10 28 -10 65 0 63
1 65 25 65 14 0 25 -4 25 -10z m80 -44 c0 -36 -5 -58 -15 -66 -19 -16 -34 -5
-17 12 7 7 12 34 12 60 0 26 5 48 10 48 6 0 10 -24 10 -54z m60 39 c15 -19 5
-65 -15 -65 -9 0 -15 -10 -15 -25 0 -14 -4 -25 -10 -25 -6 0 -10 28 -10 65 0
57 2 65 19 65 10 0 24 -7 31 -15z m69 -4 c14 -25 1 -35 -15 -13 -12 15 -13 11
-14 -31 0 -31 4 -46 10 -42 6 4 8 15 5 26 -4 13 -2 19 9 19 20 0 21 -30 2 -55
-25 -34 -46 -12 -46 48 0 30 3 57 7 60 12 13 32 7 42 -12z m1031 -41 c0 -33
-4 -60 -10 -60 -6 0 -10 27 -10 60 0 33 4 60 10 60 6 0 10 -27 10 -60z m40 6
c0 -49 2 -55 23 -58 18 -3 16 -5 -10 -9 l-33 -6 0 64 c0 35 4 63 10 63 6 0 10
-24 10 -54z m94 48 c21 -8 22 -96 2 -113 -28 -23 -46 -2 -46 53 0 65 7 74 44
60z m51 -31 l8 -38 7 33 c8 34 17 49 24 41 8 -8 -19 -112 -30 -116 -6 -2 -16
19 -22 48 -14 61 -15 69 -3 69 5 0 12 -17 16 -37z m115 27 c0 -5 -9 -10 -20
-10 -11 0 -20 -7 -20 -15 0 -8 7 -15 15 -15 8 0 15 -4 15 -10 0 -5 -7 -10 -15
-10 -25 0 -18 -38 8 -43 16 -3 13 -5 -10 -6 l-33 -1 0 60 0 60 30 0 c17 0 30
-4 30 -10z m30 -17 l1 -28 16 30 c10 18 18 25 21 17 2 -7 -1 -19 -7 -26 -8
-10 -7 -23 4 -50 10 -24 12 -36 4 -36 -6 0 -13 9 -16 20 -3 11 -9 20 -14 20
-5 0 -9 -9 -9 -20 0 -11 -4 -20 -10 -20 -6 0 -10 27 -10 60 0 33 4 60 10 60 6
0 10 -12 10 -27z m118 -10 c2 -24 -1 -33 -17 -38 -12 -3 -21 -15 -21 -26 0
-10 -4 -19 -10 -19 -6 0 -10 27 -10 61 0 60 0 60 28 57 22 -2 28 -8 30 -35z
m80 -19 c3 -55 -12 -79 -42 -68 -12 5 -16 19 -16 58 0 59 5 68 35 64 17 -3 20
-11 23 -54z m66 50 c23 -9 20 -51 -4 -66 -11 -7 -20 -20 -20 -30 0 -9 -4 -20
-10 -23 -6 -4 -10 18 -10 59 0 68 5 75 44 60z m84 -6 c13 -13 16 -66 6 -92 -4
-10 -18 -16 -35 -16 -29 0 -29 0 -29 60 0 56 2 60 23 60 13 0 28 -5 35 -12z
m82 2 c0 -5 -9 -10 -20 -10 -27 0 -25 -26 3 -35 l22 -8 -22 -4 c-28 -5 -30
-33 -3 -40 29 -8 24 -19 -7 -17 -27 1 -28 3 -31 62 l-3 62 31 0 c16 0 30 -4
30 -10z m70 -5 c16 -19 5 -34 -12 -17 -16 16 -28 15 -28 -1 0 -8 11 -19 25
-25 29 -13 32 -34 9 -56 -12 -12 -20 -13 -35 -6 -10 6 -19 15 -19 20 0 14 18
12 23 -2 4 -10 7 -10 18 0 12 11 10 17 -13 34 -30 21 -35 37 -16 56 16 16 33
15 48 -3z m40 -51 c0 -41 -4 -63 -10 -59 -5 3 -10 33 -10 66 0 33 4 59 10 59
6 0 10 -29 10 -66z m77 51 c3 -9 2 -19 -2 -23 -4 -4 -10 -1 -12 6 -10 27 -23
9 -23 -33 0 -26 5 -45 11 -45 7 0 9 10 7 25 -4 17 -1 25 8 25 19 0 18 -56 -1
-64 -32 -12 -45 5 -45 58 0 29 3 56 7 59 12 13 44 7 50 -8z m54 -17 l13 -33 3
33 c7 55 23 35 23 -28 0 -66 -18 -82 -37 -32 l-11 27 -1 -27 c-1 -15 -5 -30
-11 -33 -6 -4 -10 18 -10 59 0 72 11 84 31 34z m108 18 c8 -9 8 -16 2 -20 -5
-4 -12 -2 -16 4 -9 15 -25 12 -25 -4 0 -8 9 -17 19 -21 35 -11 37 -57 3 -70
-17 -6 -50 20 -38 32 4 4 11 1 15 -6 9 -14 31 -7 31 10 0 5 -11 15 -25 21 -16
7 -25 19 -25 34 0 32 38 45 59 20z m-3069 -111 c0 -8 -4 -15 -10 -15 -5 0 -10
7 -10 15 0 8 5 15 10 15 6 0 10 -7 10 -15z m250 0 c0 -19 -6 -19 -14 0 -3 8
-1 15 4 15 6 0 10 -7 10 -15z m250 6 c0 -6 -4 -13 -10 -16 -5 -3 -10 1 -10 9
0 9 5 16 10 16 6 0 10 -4 10 -9z m240 0 c0 -6 -4 -13 -10 -16 -5 -3 -10 1 -10
9 0 9 5 16 10 16 6 0 10 -4 10 -9z"/>
<path d="M312 130 c0 -14 2 -19 5 -12 2 6 2 18 0 25 -3 6 -5 1 -5 -13z"/>
<path d="M630 130 c0 -11 5 -20 10 -20 6 0 10 9 10 20 0 11 -4 20 -10 20 -5 0
-10 -9 -10 -20z"/>
<path d="M810 105 c0 -28 4 -44 10 -40 6 3 10 21 10 40 0 19 -4 37 -10 40 -6
4 -10 -12 -10 -40z"/>
<path d="M1100 131 c0 -12 5 -21 10 -21 6 0 10 6 10 14 0 8 -4 18 -10 21 -5 3
-10 -3 -10 -14z"/>
<path d="M2340 105 c0 -25 5 -45 10 -45 6 0 10 20 10 45 0 25 -4 45 -10 45 -5
0 -10 -20 -10 -45z"/>
<path d="M2640 130 c0 -11 5 -20 10 -20 6 0 10 9 10 20 0 11 -4 20 -10 20 -5
0 -10 -9 -10 -20z"/>
<path d="M2720 105 c0 -25 5 -45 10 -45 6 0 10 20 10 45 0 25 -4 45 -10 45 -5
0 -10 -20 -10 -45z"/>
<path d="M2800 130 c0 -11 5 -20 10 -20 6 0 10 9 10 20 0 11 -4 20 -10 20 -5
0 -10 -9 -10 -20z"/>
<path d="M2870 105 c0 -33 4 -45 13 -43 7 3 12 21 12 43 0 22 -5 40 -12 43 -9
2 -13 -10 -13 -43z"/>
</g>
</svg>
